<?xml version="1.0" standalone="no"?>
<!DOCTYPE svg PUBLIC "-//W3C//DTD SVG 20010904//EN"
 "http://www.w3.org/TR/2001/REC-SVG-20010904/DTD/svg10.dtd">
<svg version="1.0" xmlns="http://www.w3.org/2000/svg"
 width="200.000000pt" height="200.000000pt" viewBox="0 0 200.000000 200.000000"
 preserveAspectRatio="xMidYMid meet">
<metadata>
Created by potrace 1.11, written by Peter Selinger 2001-2013
</metadata>
<g transform="translate(0.000000,200.000000) scale(0.100000,-0.100000)"
fill="#000000" stroke="none">
<path d="M62 1980 c-18 -11 -39 -34 -46 -50 -9 -23 -12 -232 -12 -939 1 -907
1 -910 22 -938 11 -15 32 -34 45 -40 35 -18 1823 -18 1859 0 13 7 35 28 47 46
l23 34 0 899 c0 963 1 938 -50 983 -22 20 -38 20 -939 22 -903 3 -916 3 -949
-17z m1838 -979 c0 -710 -3 -900 -12 -903 -11 -3 -1669 -2 -1760 1 l-28 1 0
893 c0 492 3 897 7 900 3 4 408 7 900 7 l893 0 0 -899z"/>
<path d="M345 1810 l-150 -5 -3 -799 c-1 -440 2 -804 6 -808 9 -9 1602 -12
1610 -3 10 10 7 1588 -3 1602 -9 12 -114 15 -660 16 -358 1 -717 0 -800 -3z
m1453 -400 l2 -385 -197 -48 c-260 -62 -324 -70 -538 -69 -222 1 -265 8 -435
68 -122 44 -143 48 -225 48 -85 1 -113 -2 -176 -19 l-25 -6 1 398 c1 219 3
399 3 401 1 1 359 1 795 0 l792 -3 3 -385z m2 -435 c0 -19 -4 -35 -8 -35 -5 0
-71 -12 -148 -26 -76 -14 -155 -28 -174 -30 -19 -3 -42 -6 -50 -9 -101 -28
-510 -18 -510 13 0 4 73 6 162 5 193 -2 286 11 533 71 99 25 183 45 188 45 4
1 7 -15 7 -34z m-1241 -11 l85 -29 -150 -6 c-122 -5 -162 -11 -221 -31 l-71
-25 1 56 c2 56 2 56 37 63 19 3 80 5 135 4 80 -2 117 -8 184 -32z m1239 -396
l-3 -363 -789 -3 c-528 -1 -792 1 -796 8 -4 6 -6 153 -6 328 l1 317 56 22
c132 52 372 56 524 9 259 -81 478 -74 925 29 101 24 91 64 88 -347z"/>
<path d="M1604 1741 c3 -4 -12 -34 -34 -65 -36 -52 -37 -55 -12 -36 16 12 36
34 46 51 l17 29 25 -29 c26 -32 31 -46 12 -38 -7 2 -22 0 -33 -4 -16 -7 -12
-8 15 -7 19 1 45 -4 58 -11 14 -8 28 -9 39 -3 14 8 13 11 -7 17 -13 4 -46 30
-72 56 -44 45 -67 62 -54 40z"/>
<path d="M1600 1601 c-32 -5 -35 -9 -37 -40 -1 -21 2 -29 7 -22 5 9 9 10 11 2
3 -7 18 -8 42 -4 28 4 42 13 52 33 21 41 9 46 -75 31z m40 -16 c-30 -17 -40
-18 -40 -6 0 8 22 16 55 19 6 1 -1 -5 -15 -13z m0 -25 c-8 -5 -24 -9 -35 -9
l-20 0 20 9 c11 5 27 9 35 9 13 1 13 0 0 -9z"/>
<path d="M1630 1524 c-19 -7 -45 -13 -58 -13 -13 -1 -20 -5 -17 -11 4 -6 11
-8 16 -5 17 11 28 -5 20 -28 -5 -13 -5 -30 0 -39 6 -11 5 -19 -1 -23 -9 -6
-14 7 -11 28 0 4 -7 7 -18 7 -14 0 -17 -6 -13 -25 2 -14 8 -23 12 -20 4 3 13
-2 20 -10 16 -19 30 -19 30 0 0 8 7 15 15 15 8 0 15 -4 15 -10 0 -5 -4 -10
-10 -10 -5 0 -10 -19 -10 -42 0 -42 1 -43 33 -43 40 0 44 5 41 55 -2 38 8 52
21 30 13 -21 35 -10 35 17 0 21 -3 24 -12 15 -14 -14 -32 -16 -24 -4 3 5 -4
16 -15 25 -20 18 -25 52 -9 77 6 9 5 17 -3 22 -14 9 -12 9 -57 -8z m35 -46
c-4 -63 -4 -63 -17 -50 -17 17 -29 15 -22 -3 4 -8 1 -15 -6 -15 -21 0 -5 35
18 38 12 2 20 7 17 12 -3 4 -15 6 -28 3 -22 -5 -22 -5 -2 10 11 8 21 20 21 26
2 19 4 21 13 21 5 0 8 -19 6 -42z m-35 23 c0 -6 -4 -13 -10 -16 -5 -3 -10 1
-10 9 0 9 5 16 10 16 6 0 10 -4 10 -9z m60 -101 c0 -5 -7 -10 -15 -10 -8 0
-15 5 -15 10 0 6 7 10 15 10 8 0 15 -4 15 -10z m-10 -39 c0 -12 -9 -20 -25
-23 -14 -3 -25 -1 -25 3 0 5 10 10 23 10 21 2 21 2 -2 6 -19 4 -21 7 -10 14
23 14 39 10 39 -10z m0 -41 c0 -5 -12 -10 -26 -10 -14 0 -23 4 -19 10 3 6 15
10 26 10 10 0 19 -4 19 -10z"/>
<path d="M1560 1471 c0 -5 5 -13 10 -16 6 -3 10 -2 10 4 0 5 -4 13 -10 16 -5
3 -10 2 -10 -4z"/>
<path d="M1540 1355 c-11 -13 -10 -14 4 -9 13 5 16 -1 16 -30 0 -27 -4 -36
-17 -36 -9 0 -14 -3 -10 -6 3 -3 14 -3 24 0 14 5 19 16 19 51 0 47 -13 58 -36
30z"/>
<path d="M1590 1283 c0 -4 27 -16 60 -26 45 -13 66 -15 80 -7 24 13 27 25 4
16 -13 -5 -76 5 -126 20 -10 3 -18 2 -18 -3z"/>
<path d="M333 418 c-6 -7 -20 -40 -32 -73 -13 -33 -27 -65 -32 -71 -7 -8 -2
-11 14 -11 20 -1 23 4 19 29 -4 27 -2 29 24 26 23 -2 29 -8 29 -28 0 -21 4
-25 32 -27 31 -2 32 -1 19 20 -8 12 -22 47 -31 77 -21 65 -28 75 -42 58z m10
-68 c4 -15 0 -20 -15 -20 -14 0 -18 5 -14 16 3 9 6 20 6 25 0 17 17 1 23 -21z"/>
<path d="M749 420 c0 -3 0 -36 1 -74 1 -48 -3 -72 -12 -77 -7 -5 16 -7 57 -5
60 3 72 7 92 30 13 15 23 38 23 50 0 32 -34 73 -65 78 -32 6 -32 1 0 -24 44
-35 28 -112 -25 -120 -24 -3 -25 -1 -28 65 -2 42 1 67 8 67 5 0 10 5 10 10 0
10 -59 11 -61 0z"/>
<path d="M1315 360 c2 -36 -1 -72 -6 -82 -7 -13 -3 -16 26 -15 23 1 32 4 25
11 -12 12 -14 66 -2 66 12 0 44 -59 38 -69 -3 -5 13 -9 35 -9 33 -1 38 2 27
11 -8 7 -27 30 -43 51 l-29 39 37 32 c34 30 35 31 11 31 -13 0 -24 -5 -24 -11
0 -6 -13 -24 -30 -40 l-30 -29 0 30 c0 17 5 35 11 41 8 8 2 10 -19 10 l-29 -2
2 -65z"/>
<path d="M508 339 c2 -28 0 -55 -6 -62 -9 -10 -6 -13 13 -13 21 0 23 3 18 31
l-6 30 22 -19 c12 -11 20 -25 17 -31 -2 -6 9 -12 28 -13 17 -1 26 1 21 5 -6 5
-21 22 -33 39 l-21 31 20 22 c16 17 17 21 4 21 -8 0 -15 -7 -15 -15 0 -8 -10
-19 -21 -26 -20 -10 -21 -9 -17 14 4 18 0 27 -12 30 -14 4 -16 -2 -12 -44z"/>
<path d="M962 379 c-33 -13 -48 -53 -32 -84 25 -48 103 -40 116 10 13 53 -32
93 -84 74z m54 -34 c8 -33 2 -56 -19 -69 -36 -22 -64 55 -32 88 20 19 44 10
51 -19z"/>
<path d="M1152 380 c-26 -11 -44 -52 -35 -77 17 -44 70 -56 103 -23 50 50 -2
126 -68 100z m47 -14 c28 -34 -9 -120 -39 -90 -18 18 -20 73 -4 89 19 19 28
19 43 1z"/>
<path d="M438 322 c-3 -55 -2 -58 20 -60 15 -1 21 2 16 9 -3 6 -6 33 -5 60 0
36 -3 49 -13 49 -10 0 -15 -17 -18 -58z"/>
<path d="M629 371 c9 -6 12 -24 10 -58 -4 -45 -2 -49 18 -49 16 0 20 4 14 16
-4 8 -7 34 -7 58 1 39 -1 42 -24 42 -18 0 -21 -3 -11 -9z"/>
<path d="M1068 309 c3 -62 2 -71 -12 -66 -9 4 -16 2 -16 -3 0 -12 20 -13 39
-1 9 6 15 32 17 75 3 57 1 66 -14 66 -15 0 -17 -9 -14 -71z"/>
<path d="M1485 320 c0 -55 2 -59 22 -58 13 2 19 6 14 13 -9 13 -8 76 2 93 6 8
1 12 -15 12 -21 0 -23 -4 -23 -60z"/>
<path d="M1556 333 c1 -27 -2 -53 -7 -59 -6 -7 6 -10 38 -10 32 1 48 6 51 16
5 13 3 13 -11 1 -22 -18 -47 -7 -47 20 0 16 5 20 20 16 16 -4 20 0 19 16 0 12
-3 16 -6 10 -8 -21 -33 -15 -33 8 0 17 5 20 25 17 14 -3 25 -1 25 3 0 5 -17 9
-38 9 l-38 0 2 -47z"/>
<path d="M1658 322 c-3 -53 -1 -58 17 -58 18 0 20 5 17 58 -3 40 -8 58 -17 58
-9 0 -14 -18 -17 -58z"/>
<path d="M1720 275 c-10 -12 -10 -15 3 -15 8 0 17 7 21 15 3 8 2 15 -3 15 -5
0 -14 -7 -21 -15z"/>
</g>
</svg>
